<svg width="126" height="25" viewBox="0 0 126 25" fill="none" xmlns="http://www.w3.org/2000/svg">
<path d="M18.016 1.6V6.112H11.776V24H6.912V6.112H0.704V1.6H18.016ZM35.3205 15.296C35.3205 15.744 35.2885 16.2027 35.2245 16.672H22.1685C22.3605 17.8453 22.8192 18.752 23.5445 19.392C24.2912 20.0107 25.2405 20.32 26.3925 20.32C27.1818 20.32 27.8965 20.1493 28.5365 19.808C29.1765 19.4453 29.6778 18.9547 30.0405 18.336H34.9685C34.3285 20.2133 33.2405 21.7067 31.7045 22.816C30.1685 23.9253 28.3978 24.48 26.3925 24.48C23.8325 24.48 21.6992 23.6053 19.9925 21.856C18.2858 20.1067 17.4325 17.9413 17.4325 15.36C17.4325 14.336 17.5712 13.3547 17.8485 12.416C18.1472 11.4773 18.5632 10.6347 19.0965 9.888C19.6512 9.14133 20.2912 8.50133 21.0165 7.968C21.7418 7.41333 22.5632 6.98667 23.4805 6.688C24.3978 6.38933 25.3685 6.24 26.3925 6.24C28.1205 6.24 29.6672 6.64533 31.0325 7.456C32.4192 8.26667 33.4752 9.36533 34.2005 10.752C34.9472 12.1387 35.3205 13.6533 35.3205 15.296ZM26.3925 10.208C25.3472 10.208 24.4618 10.496 23.7365 11.072C23.0325 11.648 22.5525 12.448 22.2965 13.472H30.6485C30.4352 12.768 30.1258 12.1813 29.7205 11.712C29.3152 11.2213 28.8245 10.848 28.2485 10.592C27.6938 10.336 27.0752 10.208 26.3925 10.208ZM38.6463 24V0.48H43.3183V24H38.6463ZM64.5705 15.296C64.5705 15.744 64.5385 16.2027 64.4745 16.672H51.4185C51.6105 17.8453 52.0692 18.752 52.7945 19.392C53.5412 20.0107 54.4905 20.32 55.6425 20.32C56.4318 20.32 57.1465 20.1493 57.7865 19.808C58.4265 19.4453 58.9278 18.9547 59.2905 18.336H64.2185C63.5785 20.2133 62.4905 21.7067 60.9545 22.816C59.4185 23.9253 57.6478 24.48 55.6425 24.48C53.0825 24.48 50.9492 23.6053 49.2425 21.856C47.5358 20.1067 46.6825 17.9413 46.6825 15.36C46.6825 14.336 46.8212 13.3547 47.0985 12.416C47.3972 11.4773 47.8132 10.6347 48.3465 9.888C48.9012 9.14133 49.5412 8.50133 50.2665 7.968C50.9918 7.41333 51.8132 6.98667 52.7305 6.688C53.6478 6.38933 54.6185 6.24 55.6425 6.24C57.3705 6.24 58.9172 6.64533 60.2825 7.456C61.6692 8.26667 62.7252 9.36533 63.4505 10.752C64.1972 12.1387 64.5705 13.6533 64.5705 15.296ZM55.6425 10.208C54.5972 10.208 53.7118 10.496 52.9865 11.072C52.2825 11.648 51.8025 12.448 51.5465 13.472H59.8985C59.6852 12.768 59.3758 12.1813 58.9705 11.712C58.5652 11.2213 58.0745 10.848 57.4985 10.592C56.9438 10.336 56.3252 10.208 55.6425 10.208ZM77.3043 6.24C79.9283 6.24 82.0936 7.104 83.8003 8.832C85.5283 10.56 86.3923 12.736 86.3923 15.36C86.3923 17.984 85.5283 20.16 83.8003 21.888C82.0936 23.616 79.9283 24.48 77.3043 24.48C75.2349 24.48 73.4323 23.84 71.8963 22.56L71.3523 24H67.8963V0.48H72.5683V7.648C73.9549 6.70933 75.5336 6.24 77.3043 6.24ZM73.5603 18.72C74.4563 19.616 75.5763 20.064 76.9203 20.064C78.2856 20.064 79.4056 19.616 80.2803 18.72C81.1763 17.824 81.6243 16.704 81.6243 15.36C81.6243 14.464 81.4216 13.6533 81.0163 12.928C80.6323 12.2027 80.0776 11.6373 79.3523 11.232C78.6269 10.8267 77.8163 10.624 76.9203 10.624C76.0456 10.624 75.2456 10.8267 74.5203 11.232C73.7949 11.6373 73.2296 12.2027 72.8243 12.928C72.4189 13.6533 72.2163 14.464 72.2163 15.36C72.2163 16.704 72.6643 17.824 73.5603 18.72ZM97.964 24.48C96.1933 24.48 94.5933 24.0853 93.164 23.296C91.7347 22.5067 90.6147 21.4187 89.804 20.032C89.0147 18.624 88.62 17.0667 88.62 15.36C88.62 12.736 89.5053 10.56 91.276 8.832C93.0467 7.104 95.276 6.24 97.964 6.24C100.631 6.24 102.849 7.104 104.62 8.832C106.391 10.56 107.276 12.736 107.276 15.36C107.276 17.9627 106.38 20.1387 104.588 21.888C102.817 23.616 100.609 24.48 97.964 24.48ZM97.964 20.096C99.308 20.096 100.407 19.6587 101.26 18.784C102.113 17.888 102.54 16.7467 102.54 15.36C102.54 13.9733 102.113 12.8427 101.26 11.968C100.407 11.072 99.2973 10.624 97.932 10.624C96.588 10.624 95.4893 11.072 94.636 11.968C93.7827 12.8427 93.356 13.9733 93.356 15.36C93.356 16.0427 93.4627 16.6827 93.676 17.28C93.9107 17.8773 94.2307 18.3787 94.636 18.784C95.0413 19.1893 95.5213 19.5093 96.076 19.744C96.652 19.9787 97.2813 20.096 97.964 20.096ZM125.096 24H119.816L116.392 18.272L112.872 24H107.72L113.608 15.136L108.104 6.72H113.384L116.392 11.712L119.592 6.72H124.744L119.144 14.88L125.096 24Z" fill="#747474"/>
</svg>
