<svg width="110" height="22" viewBox="0 0 110 22" fill="none" xmlns="http://www.w3.org/2000/svg">
<path d="M15.764 1.4V5.348H10.304V21H6.048V5.348H0.616V1.4H15.764ZM30.9054 13.384C30.9054 13.776 30.8774 14.1773 30.8214 14.588H19.3974C19.5654 15.6147 19.9668 16.408 20.6014 16.968C21.2548 17.5093 22.0854 17.78 23.0934 17.78C23.7841 17.78 24.4094 17.6307 24.9694 17.332C25.5294 17.0147 25.9681 16.5853 26.2854 16.044H30.5974C30.0374 17.6867 29.0854 18.9933 27.7414 19.964C26.3974 20.9347 24.8481 21.42 23.0934 21.42C20.8534 21.42 18.9868 20.6547 17.4934 19.124C16.0001 17.5933 15.2534 15.6987 15.2534 13.44C15.2534 12.544 15.3748 11.6853 15.6174 10.864C15.8788 10.0427 16.2428 9.30533 16.7094 8.652C17.1948 7.99867 17.7548 7.43867 18.3894 6.972C19.0241 6.48667 19.7428 6.11333 20.5454 5.852C21.3481 5.59067 22.1974 5.46 23.0934 5.46C24.6054 5.46 25.9588 5.81467 27.1534 6.524C28.3668 7.23333 29.2908 8.19467 29.9254 9.408C30.5788 10.6213 30.9054 11.9467 30.9054 13.384ZM23.0934 8.932C22.1788 8.932 21.4041 9.184 20.7694 9.688C20.1534 10.192 19.7334 10.892 19.5094 11.788H26.8174C26.6308 11.172 26.3601 10.6587 26.0054 10.248C25.6508 9.81867 25.2214 9.492 24.7174 9.268C24.2321 9.044 23.6908 8.932 23.0934 8.932ZM33.8155 21V0.42H37.9035V21H33.8155ZM56.4992 13.384C56.4992 13.776 56.4712 14.1773 56.4152 14.588H44.9912C45.1592 15.6147 45.5605 16.408 46.1952 16.968C46.8485 17.5093 47.6792 17.78 48.6872 17.78C49.3779 17.78 50.0032 17.6307 50.5632 17.332C51.1232 17.0147 51.5619 16.5853 51.8792 16.044H56.1912C55.6312 17.6867 54.6792 18.9933 53.3352 19.964C51.9912 20.9347 50.4419 21.42 48.6872 21.42C46.4472 21.42 44.5805 20.6547 43.0872 19.124C41.5939 17.5933 40.8472 15.6987 40.8472 13.44C40.8472 12.544 40.9685 11.6853 41.2112 10.864C41.4725 10.0427 41.8365 9.30533 42.3032 8.652C42.7885 7.99867 43.3485 7.43867 43.9832 6.972C44.6179 6.48667 45.3365 6.11333 46.1392 5.852C46.9419 5.59067 47.7912 5.46 48.6872 5.46C50.1992 5.46 51.5525 5.81467 52.7472 6.524C53.9605 7.23333 54.8845 8.19467 55.5192 9.408C56.1725 10.6213 56.4992 11.9467 56.4992 13.384ZM48.6872 8.932C47.7725 8.932 46.9979 9.184 46.3632 9.688C45.7472 10.192 45.3272 10.892 45.1032 11.788H52.4112C52.2245 11.172 51.9539 10.6587 51.5992 10.248C51.2445 9.81867 50.8152 9.492 50.3112 9.268C49.8259 9.044 49.2845 8.932 48.6872 8.932ZM67.6412 5.46C69.9372 5.46 71.8319 6.216 73.3252 7.728C74.8372 9.24 75.5932 11.144 75.5932 13.44C75.5932 15.736 74.8372 17.64 73.3252 19.152C71.8319 20.664 69.9372 21.42 67.6412 21.42C65.8306 21.42 64.2532 20.86 62.9092 19.74L62.4332 21H59.4092V0.42H63.4972V6.692C64.7106 5.87067 66.0919 5.46 67.6412 5.46ZM64.3652 16.38C65.1492 17.164 66.1292 17.556 67.3052 17.556C68.4999 17.556 69.4799 17.164 70.2452 16.38C71.0292 15.596 71.4212 14.616 71.4212 13.44C71.4212 12.656 71.2439 11.9467 70.8892 11.312C70.5532 10.6773 70.0679 10.1827 69.4332 9.828C68.7986 9.47333 68.0892 9.296 67.3052 9.296C66.5399 9.296 65.8399 9.47333 65.2052 9.828C64.5706 10.1827 64.0759 10.6773 63.7212 11.312C63.3666 11.9467 63.1892 12.656 63.1892 13.44C63.1892 14.616 63.5812 15.596 64.3652 16.38ZM85.7185 21.42C84.1692 21.42 82.7692 21.0747 81.5185 20.384C80.2678 19.6933 79.2878 18.7413 78.5785 17.528C77.8878 16.296 77.5425 14.9333 77.5425 13.44C77.5425 11.144 78.3172 9.24 79.8665 7.728C81.4158 6.216 83.3665 5.46 85.7185 5.46C88.0518 5.46 89.9932 6.216 91.5425 7.728C93.0918 9.24 93.8665 11.144 93.8665 13.44C93.8665 15.7173 93.0825 17.6213 91.5145 19.152C89.9652 20.664 88.0332 21.42 85.7185 21.42ZM85.7185 17.584C86.8945 17.584 87.8558 17.2013 88.6025 16.436C89.3492 15.652 89.7225 14.6533 89.7225 13.44C89.7225 12.2267 89.3492 11.2373 88.6025 10.472C87.8558 9.688 86.8852 9.296 85.6905 9.296C84.5145 9.296 83.5532 9.688 82.8065 10.472C82.0598 11.2373 81.6865 12.2267 81.6865 13.44C81.6865 14.0373 81.7798 14.5973 81.9665 15.12C82.1718 15.6427 82.4518 16.0813 82.8065 16.436C83.1612 16.7907 83.5812 17.0707 84.0665 17.276C84.5705 17.4813 85.1212 17.584 85.7185 17.584ZM109.459 21H104.839L101.843 15.988L98.7626 21H94.2546L99.4066 13.244L94.5906 5.88H99.2106L101.843 10.248L104.643 5.88H109.151L104.251 13.02L109.459 21Z" fill="#006DFF"/>
</svg>
